<?xml version="1.0" encoding="utf-8"?>
<!-- Generator: Adobe Illustrator 25.3.1, SVG Export Plug-In . SVG Version: 6.00 Build 0)  -->
<svg version="1.1" id="レイヤー_1" xmlns="http://www.w3.org/2000/svg" xmlns:xlink="http://www.w3.org/1999/xlink" x="0px"
	 y="0px" viewBox="0 0 318.8 1000" style="enable-background:new 0 0 318.8 1000;" xml:space="preserve">
<style type="text/css">
	.st0{opacity:0.7;fill:#FFF580;enable-background:new    ;}
	.st1{fill:#FFFFFF;}
</style>
<path id="長方形_107_1_" class="st0" d="M318.8,1000c-131.9,0-215-100.2-215-238.9V238.9C103.8,107,186.8,0,318.8,0V1000z"/>
<g>
	<path class="st1" d="M105.8,706.1c6.1,0,11.1-5,11.1-11.1V209.2c0-103.1,85.6-187.1,190.9-187.1c6.1,0,11.1-5,11.1-11.1
		S313.8,0,307.7,0c-117.4,0-213,93.8-213,209.2v485.8C94.7,701.2,99.7,706.1,105.8,706.1z"/>
	<path class="st1" d="M307.7,977.7c-105.2,0-190.9-84-190.9-187c0-5.3-3.7-9.7-8.9-10.9c-0.8-0.1-1.4-0.2-2.2-0.2H11.1
		c-6.1,0-11.1,5-11.1,11.1c0,6.1,5,11.1,11.1,11.1h84c5.9,110.2,99,198.2,212.7,198.2c6.1,0,11.1-5,11.1-11.1
		S313.8,977.7,307.7,977.7L307.7,977.7z"/>
</g>
</svg>
